<svg xmlns="http://www.w3.org/2000/svg" viewBox="0 0 64 64"><rect width="64" height="64" rx="14" fill="#0d9488"/><svg x="6" y="6" width="52" height="52" viewBox="299 299 427 427"><path fill="#fff" stroke="#fff" stroke-width="24" stroke-linejoin="round" d="M502.836 340.19C510.144 339.402 528.598 340.048 535.263 342.552C550.356 348.222 548.062 346.069 563.045 342.797C586.249 337.731 613.044 342.263 633.197 355.291C653.876 368.78 668.31 389.97 673.294 414.151C681.189 451.315 666.416 480.802 641.629 507.206C639.449 509.529 636.852 512.549 635.222 515.238C635.638 523.641 640.629 541.353 642.251 550.596C648.229 584.649 643.642 618.381 623.462 647.193C611.143 665.088 592.358 679.842 570.577 683.641C555.334 686.3 540.136 682.12 532.577 667.611C524.399 651.914 533.073 635.866 536.364 620.041C538.531 609.989 538.877 599.629 537.385 589.455C535.426 576.562 530.279 566.273 519.642 558.513C513.598 555.294 508.273 555.098 502.928 559.665C480.15 579.122 484.749 612.284 492.503 637.821C494.56 644.597 496.176 650.416 495.284 657.176C492.725 676.576 474.422 686.938 456.099 683.666C423.331 678.954 398.321 651.454 387.464 621.471C378.838 598.455 378.002 574.755 382.327 550.803C384.409 539.278 388.339 526.867 389.845 515.503L389.946 514.713C369.061 492.374 353.821 475.709 349.27 443.615C346.039 420.827 353.48 396.095 367.089 377.806C386.573 350.742 419.159 337.899 451.978 341.62C457.826 340.594 470.567 346.84 475.034 346.292C483.004 345.313 494.213 341.292 502.836 340.19ZM463.499 626.429C462.401 619.568 460.738 611.256 460.709 604.347C460.635 586.95 464.581 567.582 475.075 553.348C485.854 538.726 498.728 529.748 517.332 531.583C549.254 537.539 563.964 574.89 563.433 603.95C563.307 610.833 561.884 619.214 560.875 626.103C570.576 623.386 575.337 618.84 580.282 610.186C603.277 569.944 566.317 530.569 582.326 493.08C593.72 468.063 627.295 455.479 617.056 422.982C614.021 413.351 608.982 407.547 600.347 402.62C582.792 392.604 569.764 402.591 553.024 405.549C536.765 408.421 526.337 396.494 507.6 397.686C496.567 398.969 488.805 405.634 477.688 405.967C468.603 406.24 461.095 402.447 452.515 399.848C425.382 391.628 400.072 414.321 406.923 442.432C413.157 465.943 438.353 474.482 444.485 499.037C449.944 520.898 443.432 536.709 439.024 557.747C434.161 580.958 436.596 617.582 463.499 626.429ZM519.624 373.581C523.313 374.049 525.528 374.363 529.087 375.337C534.6 376.846 541.721 380.209 547.302 380.171C555.226 380.117 563.388 376.254 571.058 374.743C592.866 370.446 617.063 379.352 630.561 397.094C639.817 409.26 644.781 426.25 642.767 441.437C640.175 460.985 630.695 473.03 617.512 486.733C611.588 492.89 606.564 498.421 603.947 506.807C600.017 519.403 605.167 532.578 607.935 545.127C612.979 567.99 615.233 589.505 606.59 611.991C601.707 624.698 594.534 635.027 583.565 643.207C572.699 651.31 565.578 651.882 552.896 653.666C558.349 664.86 572.759 658.564 581.056 654.156C598.459 644.912 610.958 625.306 616.323 606.78C622.885 584.306 619.972 561.751 614.758 539.342C612.927 531.472 609.834 521.163 610.718 512.947C612.72 497.427 628.719 486.476 637.599 474.227C654.424 451.017 656.025 423.36 642.124 398.374C626.919 371.042 594.379 359.654 564.806 367.588C559.422 369.033 552.722 370.677 547.04 370.575C531.112 368.31 522.555 363.672 505.602 364.693C501.149 365.201 497.885 365.737 493.598 366.909C488.27 368.254 482.319 370.669 476.773 370.484C468.432 370.206 460.433 367.148 452.16 365.933C389.936 356.784 349.827 425.254 387.768 475.056C393.979 483.495 401.958 490.772 408.42 498.93C419.123 512.442 411.959 528.916 408.598 543.671C401.603 574.383 401.527 606.635 420.918 633.166C431.263 647.321 446.098 660.059 464.735 659.459C467.982 659.316 469.545 657.216 470.444 654.29C469.492 652.785 462.126 652.519 459.778 651.925C426.588 643.522 411.452 608.913 412.009 577.187C412.152 569.073 413.484 561.444 414.902 553.275C418.096 534.885 428.224 514.605 416.368 497.157C412.687 491.782 405.648 484.953 400.924 480.039C385.989 464.502 378.213 443.686 382.477 421.996C385.701 406.125 395.106 392.188 408.619 383.26C416.397 378.128 425.398 375.144 434.541 373.964C446.207 372.458 457.146 375.197 468.211 378.498C470.99 379.327 473.86 379.992 476.767 380.073C483.527 380.228 489.605 376.888 495.95 375.08C503.438 373.032 511.898 372.921 519.624 373.581Z"/></svg></svg>